<?xml version="1.0" standalone="no"?><!DOCTYPE svg PUBLIC "-//W3C//DTD SVG 1.1//EN" "http://www.w3.org/Graphics/SVG/1.1/DTD/svg11.dtd"><svg class="icon" width="200px" height="200.00px" viewBox="0 0 1024 1024" version="1.1" xmlns="http://www.w3.org/2000/svg"><path fill="#146489" d="M304.64 496.64c-15.36 0-25.6-10.24-25.6-25.6v-125.44c0-128 104.96-232.96 232.96-232.96s232.96 104.96 232.96 232.96V460.8c0 15.36-10.24 25.6-25.6 25.6s-25.6-10.24-25.6-25.6v-115.2c0-99.84-81.92-181.76-181.76-181.76s-181.76 81.92-181.76 181.76v125.44c0 12.8-12.8 25.6-25.6 25.6z"  /><path fill="#146489" d="M768 913.92H256c-15.36 0-25.6-10.24-25.6-25.6V499.2c0-15.36 10.24-25.6 25.6-25.6h512c15.36 0 25.6 10.24 25.6 25.6v389.12c0 12.8-12.8 25.6-25.6 25.6z m-486.4-51.2h460.8V524.8H281.6v337.92z"  /></svg>